<?xml version="1.0" encoding="utf-8"?>
<!-- Generator: Adobe Illustrator 24.1.1, SVG Export Plug-In . SVG Version: 6.00 Build 0)  -->
<svg version="1.1" id="Layer_1" xmlns="http://www.w3.org/2000/svg" xmlns:xlink="http://www.w3.org/1999/xlink" x="0px" y="0px"
	 viewBox="0 0 1409.36 909.96" style="enable-background:new 0 0 1409.36 909.96;" xml:space="preserve">
<style type="text/css">
	.st0{fill:#FDD600;}
	.st1{fill:#D1972A;}
</style>
<path class="st0" d="M681.5,498.25c0,1.91-0.12,4.16-0.36,6.73c-0.24,2.57-1.16,5.02-2.78,7.35c-1.61,2.34-4.16,4.34-7.62,6.01
	c-3.46,1.68-8.38,2.51-14.71,2.51h-71.4v17.22c0,2.87,0.36,5.86,1.08,8.97c0.72,3.11,1.94,5.98,3.67,8.61
	c1.73,2.63,4.03,4.78,6.9,6.46c2.87,1.68,6.41,2.51,10.59,2.51c4.79,0,8.46-0.57,11.04-1.71c2.57-1.13,4.6-2.54,6.1-4.21
	s2.83-3.47,4.03-5.38c1.2-1.91,2.78-3.71,4.75-5.38c1.98-1.68,4.73-3.08,8.25-4.21c3.53-1.14,8.4-1.71,14.62-1.71
	c2.99,0,5.89,0.24,8.7,0.72c2.81,0.48,5.29,1.37,7.45,2.69s3.88,3.14,5.21,5.47c1.31,2.33,1.97,5.35,1.97,9.06
	c0,7.78-2.45,14.26-7.36,19.46c-4.9,5.21-11.06,9.36-18.47,12.47s-15.45,5.32-24.12,6.64c-8.67,1.32-16.78,1.97-24.31,1.97
	c-9.92-0.12-19.37-1.37-28.34-3.77c-8.97-2.39-16.89-6.22-23.77-11.48c-6.88-5.26-12.35-12.14-16.42-20.63
	c-4.07-8.49-6.1-18.9-6.1-31.21v-41.98c0-11.36,1.35-20.99,4.03-28.88c2.7-7.89,6.19-14.47,10.49-19.73
	c4.31-5.26,9.15-9.36,14.54-12.29c5.38-2.93,10.83-5.11,16.32-6.54c5.51-1.44,10.74-2.33,15.7-2.69c4.96-0.36,9.24-0.54,12.83-0.54
	c12.07,0,22.39,1.08,30.94,3.23c8.55,2.15,15.7,4.96,21.44,8.43c5.74,3.47,10.28,7.47,13.63,12.02s5.86,9.24,7.53,14.08
	c1.67,4.85,2.75,9.75,3.23,14.71c0.48,4.97,0.72,9.6,0.72,13.91V498.25z M584.63,493.95h44.85c0-5.62-0.15-10.61-0.45-14.98
	c-0.3-4.36-1.2-8.04-2.7-11.03c-1.5-2.99-3.82-5.26-6.99-6.82s-7.68-2.33-13.55-2.33c-4.9,0-8.76,0.78-11.57,2.33
	c-2.81,1.55-4.94,3.49-6.37,5.83c-1.44,2.33-2.34,4.81-2.68,7.44c-0.37,2.63-0.54,4.96-0.54,7V493.95z"/>
<path class="st1" d="M604.72,603.67c-10.18-0.12-19.98-1.42-29.16-3.87c-9.33-2.49-17.7-6.54-24.88-12.03
	c-7.24-5.55-13.08-12.87-17.34-21.78c-4.26-8.88-6.41-19.84-6.41-32.58v-41.98c0-11.64,1.41-21.71,4.21-29.9
	c2.81-8.23,6.52-15.2,11.04-20.72c4.54-5.55,9.75-9.95,15.48-13.07c5.58-3.04,11.31-5.33,17.02-6.82
	c5.67-1.48,11.15-2.42,16.28-2.79c5.05-0.36,9.4-0.54,13.05-0.54c12.28,0,22.95,1.12,31.72,3.32c8.82,2.23,16.33,5.18,22.29,8.8
	c6.07,3.67,10.96,7.99,14.55,12.85c3.53,4.78,6.21,9.8,7.98,14.93c1.74,5.07,2.88,10.26,3.39,15.43c0.48,5,0.73,9.79,0.73,14.21
	v11.12c0,1.99-0.12,4.34-0.37,7.02c-0.28,3.11-1.41,6.1-3.34,8.87c-1.89,2.75-4.87,5.13-8.83,7.05c-3.93,1.9-9.2,2.83-16.1,2.83
	H587.8v14.05c0,2.62,0.33,5.39,0.99,8.26c0.63,2.73,1.72,5.28,3.24,7.58c1.45,2.21,3.43,4.05,5.85,5.47
	c2.36,1.38,5.39,2.08,8.99,2.08c4.32,0,7.6-0.48,9.75-1.44c2.15-0.95,3.84-2.1,5.02-3.43c1.35-1.5,2.6-3.17,3.71-4.95
	c1.37-2.18,3.18-4.23,5.38-6.11c2.33-1.97,5.38-3.54,9.34-4.81c3.87-1.26,8.97-1.86,15.59-1.86c3.14,0,6.25,0.25,9.23,0.76
	c3.2,0.54,6.09,1.59,8.57,3.11c2.6,1.6,4.73,3.82,6.31,6.62c1.57,2.8,2.38,6.37,2.38,10.61c0,8.58-2.77,15.86-8.23,21.64
	c-5.16,5.49-11.74,9.93-19.55,13.21c-7.6,3.19-15.97,5.49-24.88,6.85C620.73,603,612.39,603.67,604.72,603.67z M604.01,423.93
	c-3.53,0-7.73,0.18-12.61,0.53c-4.74,0.34-9.84,1.21-15.12,2.59c-5.22,1.37-10.48,3.47-15.61,6.27c-5,2.72-9.58,6.6-13.6,11.51
	c-4.03,4.93-7.37,11.24-9.95,18.76c-2.56,7.53-3.86,16.91-3.86,27.85v41.98c0,11.79,1.94,21.83,5.79,29.85
	c3.84,8,9.04,14.55,15.49,19.48c6.51,4.99,14.13,8.66,22.65,10.94c8.67,2.32,17.95,3.55,27.56,3.66c7.31,0,15.34-0.65,23.8-1.94
	c8.39-1.27,16.24-3.44,23.37-6.43c6.98-2.93,12.83-6.87,17.39-11.72c4.37-4.63,6.5-10.28,6.5-17.29c0-3.14-0.52-5.67-1.56-7.5
	c-1.06-1.87-2.4-3.28-4.11-4.32c-1.79-1.1-3.92-1.86-6.32-2.27c-2.64-0.45-5.38-0.67-8.17-0.67c-5.86,0-10.45,0.53-13.65,1.55
	c-3.12,1-5.53,2.21-7.19,3.62c-1.69,1.45-3.08,3.02-4.11,4.65c-1.31,2.08-2.77,4.04-4.35,5.81c-1.79,2.01-4.22,3.69-7.19,5
	c-3.01,1.32-7.03,1.97-12.31,1.97c-4.74,0-8.85-0.99-12.19-2.94c-3.28-1.92-5.96-4.42-7.95-7.45c-1.93-2.93-3.32-6.18-4.11-9.64
	c-0.78-3.33-1.16-6.59-1.16-9.68v-20.39h74.56c5.84,0,10.32-0.74,13.32-2.2c2.97-1.44,5.12-3.1,6.4-4.95
	c1.31-1.87,2.05-3.84,2.24-5.85c0.22-2.46,0.35-4.61,0.35-6.44v-11.12c0-4.22-0.24-8.8-0.71-13.6c-0.46-4.68-1.48-9.39-3.07-13.98
	c-1.56-4.52-3.95-8.97-7.09-13.23c-3.09-4.19-7.37-7.95-12.72-11.19c-5.44-3.28-12.36-6-20.59-8.07
	C625.92,424.98,615.77,423.93,604.01,423.93z M632.65,497.11h-51.18v-15.72c0-2.17,0.19-4.65,0.58-7.44
	c0.4-3.02,1.45-5.94,3.12-8.66c1.71-2.78,4.24-5.12,7.53-6.94c3.28-1.81,7.68-2.73,13.1-2.73c6.41,0,11.3,0.87,14.94,2.65
	c3.77,1.86,6.61,4.63,8.42,8.25c1.68,3.36,2.7,7.47,3.02,12.23c0.31,4.43,0.46,9.5,0.46,15.2V497.11z M587.8,490.78h38.5
	c-0.05-4.27-0.19-8.13-0.42-11.6c-0.27-3.92-1.06-7.22-2.38-9.83c-1.19-2.38-3.01-4.14-5.55-5.39c-2.71-1.34-6.8-2.01-12.15-2.01
	c-4.33,0-7.71,0.65-10.03,1.94c-2.33,1.28-4.07,2.87-5.21,4.72c-1.2,1.95-1.95,4.03-2.24,6.2c-0.36,2.49-0.52,4.68-0.52,6.58V490.78
	z"/>
<path class="st0" d="M864.47,498.25c0,1.91-0.12,4.16-0.36,6.73c-0.24,2.57-1.16,5.02-2.78,7.35c-1.61,2.34-4.16,4.34-7.62,6.01
	c-3.46,1.68-8.38,2.51-14.71,2.51h-71.4v17.22c0,2.87,0.36,5.86,1.08,8.97s1.94,5.98,3.67,8.61c1.73,2.63,4.03,4.78,6.9,6.46
	s6.41,2.51,10.59,2.51c4.79,0,8.46-0.57,11.04-1.71c2.57-1.13,4.6-2.54,6.1-4.21s2.83-3.47,4.03-5.38c1.2-1.91,2.78-3.71,4.75-5.38
	c1.98-1.68,4.73-3.08,8.25-4.21c3.53-1.14,8.4-1.71,14.62-1.71c2.99,0,5.89,0.24,8.7,0.72c2.81,0.48,5.29,1.37,7.45,2.69
	s3.88,3.14,5.21,5.47c1.31,2.33,1.97,5.35,1.97,9.06c0,7.78-2.45,14.26-7.36,19.46c-4.9,5.21-11.06,9.36-18.47,12.47
	s-15.45,5.32-24.12,6.64c-8.67,1.32-16.78,1.97-24.31,1.97c-9.92-0.12-19.37-1.37-28.34-3.77c-8.97-2.39-16.89-6.22-23.77-11.48
	c-6.88-5.26-12.35-12.14-16.42-20.63c-4.07-8.49-6.1-18.9-6.1-31.21v-41.98c0-11.36,1.35-20.99,4.03-28.88
	c2.7-7.89,6.19-14.47,10.49-19.73c4.31-5.26,9.15-9.36,14.54-12.29c5.38-2.93,10.83-5.11,16.32-6.54c5.51-1.44,10.74-2.33,15.7-2.69
	c4.96-0.36,9.24-0.54,12.83-0.54c12.07,0,22.39,1.08,30.94,3.23c8.55,2.15,15.7,4.96,21.44,8.43c5.74,3.47,10.28,7.47,13.63,12.02
	s5.86,9.24,7.53,14.08c1.67,4.85,2.75,9.75,3.23,14.71c0.48,4.97,0.72,9.6,0.72,13.91V498.25z M767.61,493.95h44.85
	c0-5.62-0.15-10.61-0.45-14.98c-0.3-4.36-1.2-8.04-2.7-11.03c-1.5-2.99-3.82-5.26-6.99-6.82s-7.68-2.33-13.55-2.33
	c-4.9,0-8.76,0.78-11.57,2.33c-2.81,1.55-4.94,3.49-6.37,5.83c-1.44,2.33-2.34,4.81-2.68,7.44c-0.37,2.63-0.54,4.96-0.54,7V493.95z"
	/>
<path class="st1" d="M787.7,603.67c-10.18-0.12-19.98-1.42-29.16-3.87c-9.33-2.49-17.7-6.54-24.88-12.03
	c-7.24-5.55-13.08-12.87-17.34-21.78c-4.26-8.88-6.41-19.84-6.41-32.58v-41.98c0-11.64,1.41-21.71,4.21-29.9
	c2.81-8.23,6.52-15.2,11.04-20.72c4.54-5.55,9.75-9.95,15.48-13.07c5.58-3.04,11.31-5.33,17.02-6.82
	c5.67-1.48,11.15-2.42,16.28-2.79c5.05-0.36,9.4-0.54,13.05-0.54c12.28,0,22.95,1.12,31.72,3.32c8.82,2.23,16.33,5.18,22.29,8.8
	c6.07,3.67,10.96,7.99,14.55,12.85c3.53,4.78,6.21,9.8,7.98,14.93c1.74,5.07,2.88,10.26,3.39,15.43c0.48,5,0.73,9.79,0.73,14.21
	v11.12c0,1.99-0.12,4.34-0.37,7.02c-0.28,3.11-1.41,6.1-3.34,8.87c-1.89,2.75-4.87,5.13-8.83,7.05c-3.93,1.9-9.2,2.83-16.1,2.83
	h-68.23v14.05c0,2.62,0.33,5.39,0.99,8.26c0.63,2.73,1.72,5.28,3.24,7.58c1.45,2.21,3.43,4.05,5.85,5.47
	c2.36,1.38,5.39,2.08,8.99,2.08c4.32,0,7.6-0.48,9.75-1.44c2.15-0.95,3.84-2.1,5.02-3.43c1.35-1.5,2.6-3.17,3.71-4.95
	c1.37-2.18,3.18-4.23,5.38-6.11c2.33-1.97,5.38-3.54,9.34-4.81c3.87-1.26,8.97-1.86,15.59-1.86c3.14,0,6.25,0.25,9.23,0.76
	c3.2,0.54,6.09,1.59,8.57,3.11c2.6,1.6,4.73,3.82,6.31,6.62c1.57,2.8,2.38,6.37,2.38,10.61c0,8.58-2.77,15.86-8.23,21.64
	c-5.16,5.49-11.74,9.93-19.55,13.21c-7.6,3.19-15.97,5.49-24.88,6.85C803.71,603,795.37,603.67,787.7,603.67z M786.98,423.93
	c-3.53,0-7.73,0.18-12.61,0.53c-4.74,0.34-9.84,1.21-15.12,2.59c-5.22,1.37-10.48,3.47-15.61,6.27c-5,2.72-9.58,6.6-13.6,11.51
	c-4.03,4.93-7.37,11.24-9.95,18.76c-2.56,7.53-3.86,16.91-3.86,27.85v41.98c0,11.79,1.94,21.83,5.79,29.85
	c3.84,8,9.04,14.55,15.49,19.48c6.51,4.99,14.13,8.66,22.65,10.94c8.67,2.32,17.95,3.55,27.56,3.66c7.31,0,15.34-0.65,23.8-1.94
	c8.39-1.27,16.24-3.44,23.37-6.43c6.98-2.93,12.83-6.87,17.39-11.72c4.37-4.63,6.5-10.28,6.5-17.29c0-3.14-0.52-5.67-1.56-7.5
	c-1.06-1.87-2.4-3.28-4.11-4.32c-1.79-1.1-3.92-1.86-6.32-2.27c-2.64-0.45-5.38-0.67-8.17-0.67c-5.86,0-10.45,0.53-13.65,1.55
	c-3.12,1-5.53,2.21-7.19,3.62c-1.69,1.45-3.08,3.02-4.11,4.65c-1.31,2.08-2.77,4.04-4.35,5.81c-1.79,2.01-4.22,3.69-7.19,5
	c-3.01,1.32-7.03,1.97-12.31,1.97c-4.74,0-8.85-0.99-12.19-2.94c-3.28-1.92-5.96-4.42-7.95-7.45c-1.93-2.93-3.32-6.18-4.11-9.64
	c-0.78-3.33-1.16-6.59-1.16-9.68v-20.39H839c5.84,0,10.32-0.74,13.32-2.2c2.97-1.44,5.12-3.1,6.4-4.95
	c1.31-1.87,2.05-3.84,2.24-5.85c0.22-2.46,0.35-4.61,0.35-6.44v-11.12c0-4.22-0.24-8.8-0.71-13.6c-0.46-4.68-1.48-9.39-3.07-13.98
	c-1.56-4.52-3.95-8.97-7.09-13.23c-3.09-4.19-7.37-7.95-12.72-11.19c-5.44-3.28-12.36-6-20.59-8.07
	C808.89,424.98,798.75,423.93,786.98,423.93z M815.62,497.11h-51.18v-15.72c0-2.17,0.19-4.65,0.58-7.44
	c0.4-3.02,1.45-5.94,3.12-8.66c1.71-2.78,4.24-5.12,7.53-6.94c3.28-1.81,7.68-2.73,13.1-2.73c6.41,0,11.3,0.87,14.94,2.65
	c3.77,1.86,6.61,4.63,8.42,8.25c1.68,3.36,2.7,7.47,3.02,12.23c0.31,4.43,0.46,9.5,0.46,15.2V497.11z M770.77,490.78h38.5
	c-0.05-4.27-0.19-8.13-0.42-11.6c-0.27-3.92-1.06-7.22-2.38-9.83c-1.19-2.38-3.01-4.14-5.55-5.39c-2.71-1.34-6.8-2.01-12.15-2.01
	c-4.33,0-7.71,0.65-10.03,1.94c-2.33,1.28-4.07,2.87-5.21,4.72c-1.2,1.95-1.95,4.03-2.24,6.2c-0.36,2.49-0.52,4.68-0.52,6.58V490.78
	z"/>
<path class="st0" d="M996.86,421.12c3.35,0,6.99,0.3,10.95,0.9c3.93,0.6,7.56,1.7,10.85,3.32c3.29,1.61,6.04,3.88,8.25,6.82
	c2.21,2.93,3.32,6.66,3.32,11.21c0,2.04-0.33,4.06-0.99,6.1c-0.66,2.04-1.46,4.09-2.42,6.19c-0.95,2.1-1.99,4.16-3.13,6.19
	c-1.14,2.04-2.19,4.01-3.14,5.92l-62.43,87.18h39.47c4.18,0,8.28,0.21,12.28,0.63c4.01,0.41,7.57,1.4,10.68,2.96
	c3.11,1.55,5.62,3.83,7.53,6.82s2.87,7.06,2.87,12.2c0,5.02-0.95,9.06-2.87,12.11c-1.92,3.04-4.43,5.38-7.53,6.99
	c-3.11,1.62-6.67,2.67-10.68,3.14s-8.1,0.72-12.28,0.72H926.9c-3.59,0-7.35-0.24-11.31-0.72c-3.93-0.48-7.58-1.5-10.94-3.05
	s-6.1-3.77-8.25-6.64c-2.15-2.87-3.23-6.7-3.23-11.48c0-4.31,1.05-8.61,3.14-12.92s4.39-8.25,6.9-11.84l62.07-87.54h-39.47
	c-4.18,0-8.25-0.21-12.2-0.63c-3.95-0.41-7.51-1.4-10.68-2.96s-5.7-3.8-7.62-6.73c-1.92-2.93-2.87-6.9-2.87-11.93
	c0-5.14,0.95-9.21,2.87-12.2c1.92-2.99,4.45-5.29,7.62-6.9c3.17-1.62,6.73-2.67,10.68-3.14c3.95-0.48,8.02-0.72,12.2-0.72H996.86z"
	/>
<path class="st1" d="M997.58,603.67H926.9c-3.67,0-7.61-0.25-11.69-0.74c-4.23-0.51-8.24-1.63-11.89-3.32
	c-3.8-1.77-6.99-4.33-9.45-7.61c-2.56-3.41-3.86-7.92-3.86-13.38c0-4.76,1.16-9.57,3.46-14.3c2.15-4.44,4.55-8.56,7.15-12.27
	l58.54-82.55h-33.34c-4.28,0-8.5-0.22-12.53-0.65c-4.29-0.45-8.24-1.55-11.74-3.26c-3.66-1.8-6.64-4.44-8.87-7.84
	c-2.25-3.43-3.39-8.02-3.39-13.66c0-5.74,1.14-10.42,3.38-13.91c2.21-3.46,5.2-6.16,8.85-8.02c3.48-1.78,7.42-2.94,11.73-3.46
	c4.07-0.49,8.3-0.74,12.58-0.74h71.04c3.5,0,7.34,0.32,11.42,0.93c4.27,0.65,8.24,1.86,11.78,3.61c3.71,1.81,6.87,4.42,9.38,7.74
	c2.62,3.47,3.96,7.88,3.96,13.12c0,2.34-0.38,4.72-1.14,7.07c-0.69,2.15-1.55,4.33-2.57,6.54c-0.98,2.16-2.05,4.29-3.24,6.41
	c-1.1,1.99-2.14,3.92-3.07,5.78l-59.1,82.6h33.3c4.27,0,8.51,0.22,12.62,0.65c4.35,0.45,8.31,1.55,11.75,3.27
	c3.61,1.8,6.57,4.47,8.78,7.94c2.24,3.49,3.38,8.17,3.38,13.91c0,5.6-1.13,10.25-3.35,13.79c-2.23,3.53-5.17,6.26-8.76,8.12
	c-3.41,1.78-7.39,2.95-11.77,3.47C1006.1,603.42,1001.85,603.67,997.58,603.67z M925.83,424.28c-4.02,0-8,0.24-11.81,0.69
	c-3.58,0.43-6.8,1.38-9.61,2.82c-2.68,1.36-4.78,3.25-6.41,5.8c-1.57,2.44-2.36,5.98-2.36,10.48c0,4.38,0.79,7.81,2.35,10.19
	c1.62,2.48,3.7,4.32,6.37,5.62c2.82,1.39,6.06,2.28,9.61,2.65c3.82,0.41,7.81,0.61,11.86,0.61h45.59l-65.61,92.54
	c-2.4,3.42-4.63,7.26-6.64,11.39c-1.87,3.85-2.82,7.74-2.82,11.53c0,4.06,0.88,7.29,2.6,9.58c1.86,2.47,4.16,4.32,7.05,5.66
	c3.04,1.41,6.4,2.35,9.98,2.78c3.82,0.46,7.51,0.69,10.92,0.69h70.68c4.02,0,8.03-0.24,11.91-0.69c3.61-0.43,6.84-1.37,9.59-2.81
	c2.61-1.35,4.68-3.28,6.31-5.87c1.58-2.52,2.39-6.02,2.39-10.42c0-4.51-0.79-8.04-2.36-10.48c-1.63-2.53-3.69-4.39-6.28-5.7
	c-2.76-1.38-5.99-2.26-9.59-2.64c-3.88-0.41-7.91-0.61-11.96-0.61h-45.63l66.01-92.19c0.72-1.52,1.79-3.54,2.96-5.62
	c1.09-1.95,2.09-3.94,3.01-5.96c0.92-1.99,1.67-3.93,2.29-5.85c0.56-1.73,0.84-3.45,0.84-5.13c0-3.88-0.88-6.92-2.67-9.3
	c-1.92-2.53-4.31-4.51-7.11-5.88c-2.98-1.47-6.32-2.48-9.95-3.04c-3.76-0.57-7.29-0.86-10.47-0.86H925.83z"/>
<path class="st0" d="M1071.49,461.3c0-5.02,0.27-9.93,0.8-14.71c0.54-4.78,1.77-9.06,3.69-12.83c1.91-3.76,4.65-6.82,8.24-9.14
	c3.59-2.34,8.44-3.5,14.54-3.5s10.95,1.16,14.54,3.5c3.59,2.33,6.33,5.38,8.24,9.14c1.92,3.77,3.14,8.05,3.69,12.83
	c0.53,4.78,0.8,9.69,0.8,14.71v99.02c0,5.02-0.27,9.96-0.8,14.8c-0.54,4.85-1.77,9.15-3.69,12.92c-1.91,3.77-4.65,6.79-8.24,9.06
	c-3.59,2.27-8.44,3.41-14.54,3.41s-10.95-1.14-14.54-3.41c-3.59-2.27-6.33-5.29-8.24-9.06c-1.92-3.76-3.14-8.07-3.69-12.92
	c-0.53-4.84-0.8-9.77-0.8-14.8V461.3z M1126.38,376.63c0,9.21-2.39,16.06-7.18,20.54c-4.79,4.49-11.48,6.73-20.09,6.73
	c-8.61,0-15.3-2.24-20.09-6.73c-4.79-4.48-7.18-11.33-7.18-20.54c0-9.57,2.39-16.5,7.18-20.81s11.48-6.46,20.09-6.46
	c9.2,0,16.06,2.15,20.54,6.46C1124.14,360.13,1126.38,367.06,1126.38,376.63z"/>
<path class="st1" d="M1098.75,603.67c-6.68,0-12.14-1.31-16.23-3.9c-4.06-2.57-7.21-6.04-9.38-10.31c-2.07-4.06-3.41-8.78-4-13.99
	c-0.56-4.97-0.83-10.07-0.83-15.15V461.3c0-5.08,0.27-10.15,0.83-15.06c0.58-5.15,1.93-9.83,4.01-13.91
	c2.15-4.26,5.3-7.74,9.34-10.37c4.08-2.66,9.55-4.01,16.26-4.01s12.17,1.35,16.27,4.01c4.03,2.62,7.18,6.11,9.33,10.37
	c2.08,4.08,3.43,8.76,4.01,13.9c0.56,4.92,0.83,9.99,0.83,15.07v99.02c0,5.08-0.27,10.18-0.83,15.14
	c-0.58,5.22-1.93,9.93-4.01,14.01c-2.15,4.26-5.31,7.73-9.37,10.3C1110.89,602.36,1105.43,603.67,1098.75,603.67z M1098.75,424.28
	c-5.46,0-9.76,1-12.8,2.99c-3.09,2-5.51,4.67-7.15,7.92c-1.73,3.41-2.86,7.37-3.37,11.76c-0.52,4.67-0.78,9.5-0.78,14.35v99.02
	c0,4.85,0.26,9.71,0.78,14.45c0.51,4.45,1.63,8.43,3.37,11.82c1.66,3.29,3.98,5.85,7.11,7.82c3.06,1.94,7.37,2.92,12.84,2.92
	c5.47,0,9.79-0.98,12.84-2.92c3.13-1.97,5.46-4.53,7.1-7.81c1.74-3.4,2.87-7.38,3.38-11.84c0.52-4.73,0.78-9.59,0.78-14.44V461.3
	c0-4.85-0.26-9.68-0.78-14.36c-0.51-4.39-1.63-8.34-3.36-11.75c-1.65-3.25-4.06-5.92-7.14-7.92
	C1108.51,425.29,1104.21,424.28,1098.75,424.28z M1099.11,407.06c-9.4,0-16.89-2.55-22.26-7.59c-5.43-5.07-8.18-12.76-8.18-22.84
	c0-10.46,2.77-18.25,8.23-23.17c5.36-4.82,12.83-7.27,22.21-7.27c10.02,0,17.67,2.47,22.73,7.34c5.11,4.9,7.71,12.67,7.71,23.09
	c0,10.08-2.75,17.77-8.18,22.85C1116,404.51,1108.51,407.06,1099.11,407.06z M1099.11,352.53c-7.76,0-13.81,1.9-17.98,5.65
	c-4.06,3.66-6.12,9.86-6.12,18.45c0,8.26,2.08,14.39,6.17,18.22c4.16,3.9,10.18,5.88,17.93,5.88c7.74,0,13.77-1.97,17.93-5.87
	c4.09-3.84,6.17-9.97,6.17-18.23c0-8.63-1.94-14.86-5.75-18.52C1113.61,354.4,1107.44,352.53,1099.11,352.53z"/>
<g>
	<g>
		<g>
			<path class="st0" d="M483.67,424.46l5.63-2.65c3.49-1.64,5.73-5.15,5.73-9.02v-83.71c0-3.54-1.88-6.82-4.94-8.6l-84.3-49.18
				c-3.09-1.81-6.92-1.81-10.02-0.01l-82.15,47.64c-3.07,1.78-4.96,5.06-4.96,8.62v213.31c0,3.56,1.9,6.84,4.98,8.62l82.3,47.57
				c3.01,1.74,6.72,1.78,9.77,0.11l84.15-46.13c3.19-1.75,5.17-5.1,5.17-8.73V453.9c0-4.01-2.4-7.62-6.09-9.18l-4.91-2.07
				C476.09,439.3,475.87,428.13,483.67,424.46z M438.45,408.23c0,3.68-2.03,7.06-5.28,8.79l-15.48,8.23
				c-7.07,3.76-7.04,13.9,0.06,17.62l15.36,8.05c3.28,1.72,5.34,5.12,5.34,8.82v62.91c0,3.71-2.07,7.12-5.36,8.83l-27.2,14.18
				c-3.02,1.58-6.64,1.5-9.59-0.21l-26.08-15.08c-3.08-1.78-4.97-5.07-4.97-8.62V346.22c0-3.58,1.92-6.88,5.03-8.65l25.95-14.79
				c2.99-1.7,6.65-1.74,9.67-0.11l27.32,14.79c3.22,1.74,5.22,5.1,5.22,8.76V408.23z"/>
		</g>
	</g>
</g>
<g>
	<g>
		<path class="st1" d="M400.92,601.54c-2.28,0-4.55-0.58-6.57-1.75l-82.3-47.56c-4.05-2.34-6.56-6.69-6.56-11.36V327.55
			c0-4.66,2.5-9.01,6.53-11.36l82.17-47.64c4.07-2.36,9.12-2.34,13.19,0.02l84.3,49.18c4.02,2.34,6.51,6.69,6.51,11.34v83.71
			c0,5.07-2.96,9.74-7.53,11.88l-5.64,2.65c-2.5,1.18-3.96,3.53-3.91,6.28c0.05,2.76,1.61,5.05,4.16,6.12l4.9,2.07
			c4.87,2.05,8.03,6.8,8.03,12.1v88.39c0,4.8-2.61,9.22-6.82,11.51l-84.15,46.13C405.27,601,403.09,601.54,400.92,601.54z
			 M397.51,594.31c2.08,1.19,4.55,1.23,6.67,0.07l84.15-46.13c2.18-1.19,3.53-3.47,3.53-5.96V453.9c0-2.74-1.63-5.2-4.14-6.26
			l-4.91-2.07c-4.85-2.05-7.92-6.58-8.03-11.84c-0.1-5.26,2.8-9.91,7.55-12.14l5.64-2.65c2.36-1.11,3.9-3.53,3.9-6.15v-83.71
			c0-2.41-1.29-4.66-3.37-5.87l-84.3-49.18c-2.1-1.22-4.73-1.23-6.83-0.01l-82.16,47.64c-2.08,1.21-3.38,3.46-3.38,5.88v213.31
			c0,2.42,1.3,4.67,3.39,5.88L397.51,594.31z"/>
	</g>
</g>
<g>
	<g>
		<path class="st1" d="M401.29,549.97c-2.26,0-4.53-0.59-6.57-1.78l-26.08-15.08c-4.05-2.34-6.56-6.69-6.56-11.36V346.23
			c0-4.71,2.54-9.08,6.62-11.41l25.97-14.8c3.95-2.25,8.72-2.31,12.74-0.14l27.33,14.79c4.24,2.29,6.88,6.72,6.88,11.54v62.01
			c0,4.86-2.66,9.3-6.95,11.59l-15.49,8.23c-2.26,1.21-3.61,3.46-3.6,6.02c0.01,2.56,1.37,4.8,3.64,5.99l15.37,8.04
			c4.34,2.28,7.04,6.74,7.04,11.63v62.92c0,4.91-2.71,9.37-7.06,11.64l-27.2,14.18C405.44,549.47,403.36,549.97,401.29,549.97z
			 M397.79,325.53l-25.94,14.8c-2.12,1.2-3.43,3.46-3.43,5.9v175.52c0,2.42,1.3,4.67,3.39,5.88l26.08,15.08
			c2.03,1.18,4.45,1.22,6.53,0.14l27.22-14.18c2.25-1.18,3.65-3.48,3.65-6.02v-62.92c0-2.53-1.4-4.84-3.65-6.02l-15.37-8.04
			c-4.32-2.27-7.01-6.71-7.03-11.59c-0.01-4.88,2.65-9.34,6.97-11.64l15.48-8.23c2.21-1.19,3.6-3.49,3.6-6v-62.01
			c0-2.5-1.36-4.79-3.56-5.98l-27.33-14.79C402.31,324.33,399.84,324.37,397.79,325.53L397.79,325.53z"/>
	</g>
</g>
</svg>
