<svg id="Layer_1" data-name="Layer 1" xmlns="http://www.w3.org/2000/svg" width="303.95" height="528" viewBox="0 0 303.95 528">
  <defs>
    <style>
      .cls-1 {
        fill: #fdd600;
      }
    </style>
  </defs>
  <path class="cls-1" d="M837.43,438.81l8.9-4.17a20.79,20.79,0,0,0,11.88-18.75v-132A20.76,20.76,0,0,0,848,266L715,188.4a20.75,20.75,0,0,0-20.8,0L564.57,263.52a20.78,20.78,0,0,0-10.3,17.91V617.89a20.77,20.77,0,0,0,10.34,17.93l129.8,75a20.85,20.85,0,0,0,20.32.23L847.46,638.3a20.65,20.65,0,0,0,10.75-18.15V480.73a20.67,20.67,0,0,0-12.66-19.09l-7.73-3.26a10.71,10.71,0,0,1-.39-19.57ZM759,408.68a10.77,10.77,0,0,1-5.68,9.47l-24.41,13a20.72,20.72,0,0,0,.09,36.63l24.24,12.69a10.7,10.7,0,0,1,5.76,9.49v99.24a10.68,10.68,0,0,1-5.76,9.49L710.3,621a10.6,10.6,0,0,1-10.3-.22L658.86,597a10.75,10.75,0,0,1-5.35-9.28V310.89a10.71,10.71,0,0,1,5.41-9.31l40.92-23.34a10.78,10.78,0,0,1,10.42-.12l43.11,23.33a10.71,10.71,0,0,1,5.62,9.43Z" transform="translate(-554.27 -185.59)"/>
</svg>
