<svg
  width="100%"
  height="100%"
  preserveAspectRatio="none"
  viewBox="0 0 71 70"
  fill="none"
  xmlns="http://www.w3.org/2000/svg"
>
  <path
    d="M31.1954 69.6685H24.4299C23.6813 69.6685 23.0173 69.1899 22.7808 68.4807L22.0183 66.1919H33.607L32.8444 68.4807C32.608 69.1899 31.9428 69.6685 31.1954 69.6685Z"
    fill="#335DF4"
  />
  <path
    d="M17.3832 55.4553C17.9409 55.567 18.5181 55.6257 19.1092 55.6257C21.9031 55.6257 24.3896 54.3181 25.9821 52.2854H38.2428V60.3975C38.2428 62.3177 36.6853 63.8741 34.7662 63.8741H20.8598C18.9395 63.8741 17.3832 62.3177 17.3832 60.3975V55.4553Z"
    fill="#335DF4"
  />
  <path
    fillRule="evenodd"
    clipRule="evenodd"
    d="M22.1963 39.0085L21.4264 40.1593C21.5625 40.4323 21.6449 40.7362 21.6449 41.0616C21.6449 42.1949 20.7214 43.1147 19.5835 43.1147C18.4456 43.1147 17.5221 42.1949 17.5221 41.0616C17.5221 39.9283 18.4456 39.0085 19.5835 39.0085C19.6268 39.0085 19.668 39.0188 19.7103 39.0219L20.7874 37.4133C20.9791 37.1269 21.3007 36.9554 21.6449 36.9554H25.7678V23.7067H15.666H13.6045V28.8393H15.9515C16.3091 28.2275 16.9657 27.8128 17.7274 27.8128C18.8653 27.8128 19.7888 28.7326 19.7888 29.8659C19.7888 30.9992 18.8653 31.919 17.7274 31.919C16.9667 31.919 16.3091 31.5042 15.9515 30.8924H12.5738C12.0038 30.8924 11.5431 30.4336 11.5431 29.8659V22.6801C11.5431 22.1124 12.0038 21.6536 12.5738 21.6536H15.666H25.7678V12.6874H21.3594C21.0017 13.2992 20.3452 13.7139 19.5835 13.7139C18.4456 13.7139 17.5221 12.7941 17.5221 11.6608C17.5221 10.5275 18.4456 9.60777 19.5835 9.60777C20.3442 9.60777 21.0017 10.0225 21.3594 10.6343H25.7678V6.15924C25.7678 2.75831 22.9982 0 19.5835 0C16.85 0 14.5351 1.76873 13.7177 4.21702C8.43121 4.93047 4.12284 9.42774 4.12284 14.8848C4.12284 16.0879 4.32898 17.2418 4.69488 18.3227C1.86043 20.2659 0 23.517 0 27.2033C0 30.326 1.34095 33.1285 3.4704 35.0974C2.50256 36.4668 1.96659 38.1606 2.07482 39.9878C2.31704 44.0519 5.97709 47.2208 9.78762 47.2208C10.4143 47.2208 11.0059 47.1356 11.5831 46.997C12.3963 50.0777 15.204 52.3535 18.5528 52.3535C22.5375 52.3535 25.7678 49.1363 25.7678 45.1677V39.0085H22.1963Z"
    fill="#335DF4"
  />
  <path
    fillRule="evenodd"
    clipRule="evenodd"
    d="M41.5148 49.9675C41.5148 49.9675 54.2624 39.5377 54.2624 27.9491C54.2624 15.1482 43.8859 4.77173 31.085 4.77173V10.5661C33.645 10.5661 35.7205 12.6416 35.7205 15.2015C35.7205 17.3582 34.2406 19.1556 32.2439 19.6724V36.7715L40.356 34.0667V28.9434C38.3592 28.4265 36.8794 26.6291 36.8794 24.4725C36.8794 21.9125 38.9549 19.837 41.5148 19.837C44.0748 19.837 46.1503 21.9125 46.1503 24.4725C46.1503 26.6291 44.6704 28.4265 42.6737 28.9434V34.9023C42.6737 35.4017 42.355 35.8444 41.881 36.0009L32.2439 39.2144V43.0143V49.9675H41.5148Z"
    fill="#335DF4"
  />
  <path
    d="M61.9316 30.0625H69.0211C69.9806 30.0625 70.7594 29.2838 70.7594 28.3242C70.7594 27.3647 69.9806 26.5859 69.0211 26.5859H61.9316C60.9721 26.5859 60.1933 27.3647 60.1933 28.3242C60.1933 29.2838 60.9721 30.0625 61.9316 30.0625Z"
    fill="#335DF4"
  />
  <path
    d="M56.1362 47.8549C56.5812 47.8549 57.0262 48.0241 57.3658 48.3636L60.8424 51.8402C61.5215 52.5193 61.5215 53.6191 60.8424 54.2982C60.1633 54.9773 59.0635 54.9773 58.3844 54.2982L54.9078 50.8216C54.2287 50.1425 54.2287 49.0427 54.9078 48.3636C55.2462 48.0241 55.6912 47.8549 56.1362 47.8549Z"
    fill="#335DF4"
  />
  <path
    d="M56.1362 8.58861C56.5812 8.58861 57.0262 8.41941 57.3658 8.07987L60.8424 4.60327C61.5215 3.92417 61.5215 2.8244 60.8424 2.14531C60.1633 1.46621 59.0635 1.46621 58.3844 2.14531L54.9078 5.62191C54.2287 6.30101 54.2287 7.40077 54.9078 8.07987C55.2462 8.41941 55.6912 8.58861 56.1362 8.58861Z"
    fill="#335DF4"
  />
</svg>